<mxfile host="65bd71144e">
    <diagram id="ntSZK0QofKG97cFKW22v" name="Page-1">
        <mxGraphModel dx="2790" dy="1576" grid="1" gridSize="10" guides="1" tooltips="1" connect="1" arrows="1" fold="1" page="1" pageScale="1" pageWidth="850" pageHeight="1100" background="none" math="0" shadow="0">
            <root>
                <mxCell id="0"/>
                <mxCell id="1" parent="0"/>
                <mxCell id="59" value="" style="rounded=1;whiteSpace=wrap;html=1;fontColor=#000000;fillColor=#FFCC99;strokeWidth=3;dashed=1;strokeColor=#000000;" vertex="1" parent="1">
                    <mxGeometry x="-292.88" y="140" width="402.88" height="1200" as="geometry"/>
                </mxCell>
                <mxCell id="13" value="" style="group" parent="1" vertex="1" connectable="0">
                    <mxGeometry x="-740" y="480" width="120" height="170" as="geometry"/>
                </mxCell>
                <mxCell id="5" value="" style="sketch=0;outlineConnect=0;fontColor=#ffffff;fillColor=#1ba1e2;strokeColor=#006EAF;dashed=0;verticalLabelPosition=bottom;verticalAlign=top;align=center;html=1;fontSize=12;fontStyle=0;aspect=fixed;pointerEvents=1;shape=mxgraph.aws4.mobile_client;" parent="13" vertex="1">
                    <mxGeometry x="26.409999999999968" width="67.17" height="127.8" as="geometry"/>
                </mxCell>
                <mxCell id="11" value="&lt;font color=&quot;#000000&quot; style=&quot;font-size: 24px;&quot;&gt;Frontend&lt;/font&gt;" style="text;html=1;align=center;verticalAlign=middle;resizable=0;points=[];autosize=1;strokeColor=none;fillColor=none;" parent="13" vertex="1">
                    <mxGeometry y="130" width="120" height="40" as="geometry"/>
                </mxCell>
                <mxCell id="18" value="&lt;span style=&quot;font-size: 24px;&quot;&gt;&lt;font color=&quot;#18141d&quot;&gt;AWS Cognito&lt;/font&gt;&lt;/span&gt;" style="sketch=0;points=[[0,0,0],[0.25,0,0],[0.5,0,0],[0.75,0,0],[1,0,0],[0,1,0],[0.25,1,0],[0.5,1,0],[0.75,1,0],[1,1,0],[0,0.25,0],[0,0.5,0],[0,0.75,0],[1,0.25,0],[1,0.5,0],[1,0.75,0]];outlineConnect=0;fontColor=#232F3E;gradientColor=#F54749;gradientDirection=north;fillColor=#C7131F;strokeColor=#ffffff;dashed=0;verticalLabelPosition=bottom;verticalAlign=top;align=center;html=1;fontSize=12;fontStyle=0;aspect=fixed;shape=mxgraph.aws4.resourceIcon;resIcon=mxgraph.aws4.cognito;" parent="1" vertex="1">
                    <mxGeometry x="170" y="210" width="78" height="78" as="geometry"/>
                </mxCell>
                <mxCell id="19" value="&lt;span style=&quot;font-size: 24px;&quot;&gt;&lt;font color=&quot;#18141d&quot;&gt;Authentication&lt;/font&gt;&lt;/span&gt;" style="sketch=0;points=[[0,0,0],[0.25,0,0],[0.5,0,0],[0.75,0,0],[1,0,0],[0,1,0],[0.25,1,0],[0.5,1,0],[0.75,1,0],[1,1,0],[0,0.25,0],[0,0.5,0],[0,0.75,0],[1,0.25,0],[1,0.5,0],[1,0.75,0]];outlineConnect=0;fontColor=#232F3E;gradientColor=#F78E04;gradientDirection=north;fillColor=#D05C17;strokeColor=#ffffff;dashed=0;verticalLabelPosition=bottom;verticalAlign=top;align=center;html=1;fontSize=12;fontStyle=0;aspect=fixed;shape=mxgraph.aws4.resourceIcon;resIcon=mxgraph.aws4.lambda;" parent="1" vertex="1">
                    <mxGeometry x="-50" y="210" width="78" height="78" as="geometry"/>
                </mxCell>
                <mxCell id="22" value="" style="group" parent="1" vertex="1" connectable="0">
                    <mxGeometry x="-425" y="490" width="130" height="176" as="geometry"/>
                </mxCell>
                <mxCell id="6" value="" style="outlineConnect=0;dashed=0;verticalLabelPosition=bottom;verticalAlign=top;align=center;html=1;shape=mxgraph.aws3.api_gateway;fillColor=#D9A741;gradientColor=none;" parent="22" vertex="1">
                    <mxGeometry x="26.749999999999943" width="76.5" height="93" as="geometry"/>
                </mxCell>
                <mxCell id="12" value="&lt;font style=&quot;font-size: 24px;&quot;&gt;&lt;font color=&quot;#000000&quot;&gt;AWS API&amp;nbsp;&lt;br&gt;Gateway&lt;/font&gt;&lt;br&gt;&lt;/font&gt;" style="text;html=1;align=center;verticalAlign=middle;resizable=0;points=[];autosize=1;strokeColor=none;fillColor=none;" parent="22" vertex="1">
                    <mxGeometry y="106" width="130" height="70" as="geometry"/>
                </mxCell>
                <mxCell id="23" value="" style="endArrow=classic;html=1;fontSize=24;" parent="1" edge="1">
                    <mxGeometry width="50" height="50" relative="1" as="geometry">
                        <mxPoint x="-620" y="550" as="sourcePoint"/>
                        <mxPoint x="-440" y="550" as="targetPoint"/>
                    </mxGeometry>
                </mxCell>
                <mxCell id="25" value="Google CloudÂ &#10;Vision" style="editableCssRules=.*;shape=image;verticalLabelPosition=bottom;labelBackgroundColor=none;verticalAlign=top;aspect=fixed;imageAspect=0;image=data:image/svg+xml,PHN2ZyB4bWxucz0iaHR0cDovL3d3dy53My5vcmcvMjAwMC9zdmciIHhtbG5zOnY9Imh0dHBzOi8vdmVjdGEuaW8vbmFubyIgd2lkdGg9IjIwIiBoZWlnaHQ9IjE2IiB2aWV3Qm94PSIwIDAgMjAgMTYiPiYjeGE7CTxzdHlsZSB0eXBlPSJ0ZXh0L2NzcyI+JiN4YTsJLnN0MHtmaWxsOiM2NjlkZjY7fSYjeGE7CS5zdDF7ZmlsbDojYWVjYmZhO30mI3hhOwkuc3Qye2ZpbGw6IzQyODVmNDt9JiN4YTsJPC9zdHlsZT4mI3hhOwk8ZyBjbGFzcz0ic3QwIj4mI3hhOwkJPHBhdGggZD0iTTEwIDE2TDAgOGg0bDYgNC45OXoiLz4mI3hhOwkJPHBhdGggZD0iTTIwIDhsLTEwIDh2LTMuMDFMMTYgOHoiLz4mI3hhOwk8L2c+JiN4YTsJPGcgY2xhc3M9InN0MSI+JiN4YTsJCTxwYXRoIGQ9Ik0xMCAzLjAxTDQgOEgwbDEwLTh6Ii8+JiN4YTsJCTxwYXRoIGQ9Ik0yMCA4TDEwIDB2My4wMUwxNiA4eiIvPiYjeGE7CTwvZz4mI3hhOwk8Y2lyY2xlIGNsYXNzPSJzdDIiIGN4PSIxMCIgY3k9IjgiIHI9IjIiLz4mI3hhOzwvc3ZnPg==;fontSize=24;fontColor=#1b1820;" parent="1" vertex="1">
                    <mxGeometry x="181.5" y="996.5" width="83.75" height="67" as="geometry"/>
                </mxCell>
                <mxCell id="29" value="" style="endArrow=classic;html=1;fontSize=24;entryX=0;entryY=0.5;entryDx=0;entryDy=0;entryPerimeter=0;exitX=1;exitY=0.5;exitDx=0;exitDy=0;exitPerimeter=0;" parent="1" source="19" target="18" edge="1">
                    <mxGeometry width="50" height="50" relative="1" as="geometry">
                        <mxPoint x="79" y="390" as="sourcePoint"/>
                        <mxPoint x="139" y="318" as="targetPoint"/>
                    </mxGeometry>
                </mxCell>
                <mxCell id="32" value="" style="strokeColor=#dddddd;shadow=1;strokeWidth=1;rounded=1;absoluteArcSize=1;arcSize=2;labelBackgroundColor=none;fontSize=24;" parent="1" vertex="1">
                    <mxGeometry x="173.37" y="830" width="100" height="60" as="geometry"/>
                </mxCell>
                <mxCell id="33" value="Firebase" style="sketch=0;dashed=0;connectable=0;html=1;fillColor=#5184F3;strokeColor=none;shape=mxgraph.gcp2.firebase;part=1;labelPosition=right;verticalLabelPosition=middle;align=left;verticalAlign=middle;spacingLeft=5;fontColor=#999999;fontSize=12;labelBackgroundColor=none;" parent="32" vertex="1">
                    <mxGeometry width="32.4" height="45" relative="1" as="geometry">
                        <mxPoint x="5" y="7" as="offset"/>
                    </mxGeometry>
                </mxCell>
                <mxCell id="35" value="Google Natural&#10;Language AI&#10;" style="editableCssRules=.*;shape=image;verticalLabelPosition=bottom;labelBackgroundColor=none;verticalAlign=top;aspect=fixed;imageAspect=0;image=data:image/svg+xml,PHN2ZyB4bWxucz0iaHR0cDovL3d3dy53My5vcmcvMjAwMC9zdmciIHhtbG5zOnY9Imh0dHBzOi8vdmVjdGEuaW8vbmFubyIgd2lkdGg9IjIwIiBoZWlnaHQ9IjE2IiB2aWV3Qm94PSIwIDAgMjAgMTYiPiYjeGE7CTxzdHlsZSB0eXBlPSJ0ZXh0L2NzcyI+JiN4YTsJLnN0MHtmaWxsOiM2NjlkZjY7fSYjeGE7CS5zdDF7ZmlsbDojNDI4NWY0O30mI3hhOwkuc3Qye2ZpbGw6I2FlY2JmYTt9JiN4YTsJPC9zdHlsZT4mI3hhOwk8cGF0aCBjbGFzcz0ic3QwIiBkPSJNMTUgMmgzdjEyaC0zdjJoMyAydi0yVjIgMGgtMi0zeiIvPiYjeGE7CTxwYXRoIGNsYXNzPSJzdDEiIGQ9Ik0xOCAydjFsMi0xem0yIDEydi0xbC0yIDF6Ii8+JiN4YTsJPHBhdGggY2xhc3M9InN0MCIgZD0iTTUgMTRIMlYyaDNWMEgyIDB2MiAxMiAyaDIgM3oiLz4mI3hhOwk8cGF0aCBjbGFzcz0ic3QxIiBkPSJNMCAxNHYtMWwyIDF6TTIgMnYxTDAgMnoiLz4mI3hhOwk8cGF0aCBjbGFzcz0ic3QyIiBkPSJNNSA3aDEwdjJINXptMCAzaDEwdjJINXptMC02aDEwdjJINXoiLz4mI3hhOzwvc3ZnPg==;fontColor=#000000;fontSize=24;" parent="1" vertex="1">
                    <mxGeometry x="181.5" y="418" width="55" height="44" as="geometry"/>
                </mxCell>
                <mxCell id="40" style="edgeStyle=none;html=1;entryX=0;entryY=0.25;entryDx=0;entryDy=0;" parent="1" source="36" target="32" edge="1">
                    <mxGeometry relative="1" as="geometry">
                        <mxPoint x="189" y="770" as="targetPoint"/>
                    </mxGeometry>
                </mxCell>
                <mxCell id="41" style="edgeStyle=none;html=1;entryX=0;entryY=0.5;entryDx=0;entryDy=0;" parent="1" source="36" target="35" edge="1">
                    <mxGeometry relative="1" as="geometry"/>
                </mxCell>
                <mxCell id="36" value="&lt;span style=&quot;color: rgb(0, 0, 0); font-size: 24px;&quot;&gt;createMessage&lt;/span&gt;" style="sketch=0;points=[[0,0,0],[0.25,0,0],[0.5,0,0],[0.75,0,0],[1,0,0],[0,1,0],[0.25,1,0],[0.5,1,0],[0.75,1,0],[1,1,0],[0,0.25,0],[0,0.5,0],[0,0.75,0],[1,0.25,0],[1,0.5,0],[1,0.75,0]];outlineConnect=0;fontColor=#232F3E;gradientColor=#F78E04;gradientDirection=north;fillColor=#D05C17;strokeColor=#ffffff;dashed=0;verticalLabelPosition=bottom;verticalAlign=top;align=center;html=1;fontSize=12;fontStyle=0;aspect=fixed;shape=mxgraph.aws4.resourceIcon;resIcon=mxgraph.aws4.lambda;" parent="1" vertex="1">
                    <mxGeometry x="-50" y="400" width="80" height="80" as="geometry"/>
                </mxCell>
                <mxCell id="42" value="" style="strokeColor=#dddddd;shadow=1;strokeWidth=1;rounded=1;absoluteArcSize=1;arcSize=2;labelBackgroundColor=none;fontSize=24;" parent="1" vertex="1">
                    <mxGeometry x="-730" y="700" width="100" height="60" as="geometry"/>
                </mxCell>
                <mxCell id="43" value="Firebase" style="sketch=0;dashed=0;connectable=0;html=1;fillColor=#5184F3;strokeColor=none;shape=mxgraph.gcp2.firebase;part=1;labelPosition=right;verticalLabelPosition=middle;align=left;verticalAlign=middle;spacingLeft=5;fontColor=#999999;fontSize=12;labelBackgroundColor=none;" parent="42" vertex="1">
                    <mxGeometry width="32.4" height="45" relative="1" as="geometry">
                        <mxPoint x="5" y="7" as="offset"/>
                    </mxGeometry>
                </mxCell>
                <mxCell id="47" value="" style="endArrow=classic;html=1;fontSize=24;startArrow=classic;startFill=1;" parent="1" edge="1">
                    <mxGeometry width="50" height="50" relative="1" as="geometry">
                        <mxPoint x="-680.53" y="646.95" as="sourcePoint"/>
                        <mxPoint x="-680.53" y="698" as="targetPoint"/>
                    </mxGeometry>
                </mxCell>
                <mxCell id="51" style="edgeStyle=none;html=1;exitX=1;exitY=0.5;exitDx=0;exitDy=0;exitPerimeter=0;entryX=0;entryY=0.5;entryDx=0;entryDy=0;" parent="1" source="48" target="32" edge="1">
                    <mxGeometry relative="1" as="geometry">
                        <mxPoint x="189" y="740" as="targetPoint"/>
                    </mxGeometry>
                </mxCell>
                <mxCell id="48" value="&lt;font color=&quot;#000000&quot;&gt;&lt;span style=&quot;font-size: 24px;&quot;&gt;createRoom&lt;/span&gt;&lt;/font&gt;" style="sketch=0;points=[[0,0,0],[0.25,0,0],[0.5,0,0],[0.75,0,0],[1,0,0],[0,1,0],[0.25,1,0],[0.5,1,0],[0.75,1,0],[1,1,0],[0,0.25,0],[0,0.5,0],[0,0.75,0],[1,0.25,0],[1,0.5,0],[1,0.75,0]];outlineConnect=0;fontColor=#232F3E;gradientColor=#F78E04;gradientDirection=north;fillColor=#D05C17;strokeColor=#ffffff;dashed=0;verticalLabelPosition=bottom;verticalAlign=top;align=center;html=1;fontSize=12;fontStyle=0;aspect=fixed;shape=mxgraph.aws4.resourceIcon;resIcon=mxgraph.aws4.lambda;" parent="1" vertex="1">
                    <mxGeometry x="-50" y="590" width="80" height="80" as="geometry"/>
                </mxCell>
                <mxCell id="60" value="&lt;font style=&quot;font-size: 24px;&quot;&gt;AWS Lambda&lt;/font&gt;" style="text;html=1;align=center;verticalAlign=middle;resizable=0;points=[];autosize=1;strokeColor=none;fillColor=none;fontColor=#000000;fontStyle=1" vertex="1" parent="1">
                    <mxGeometry x="-181.44" y="1280" width="180" height="40" as="geometry"/>
                </mxCell>
                <mxCell id="72" style="edgeStyle=none;html=1;entryX=0;entryY=0.5;entryDx=0;entryDy=0;fontSize=24;fontColor=#000000;startArrow=none;startFill=0;" edge="1" parent="1" source="65" target="32">
                    <mxGeometry relative="1" as="geometry"/>
                </mxCell>
                <mxCell id="65" value="&lt;font color=&quot;#000000&quot;&gt;&lt;span style=&quot;font-size: 24px;&quot;&gt;joinRoom&lt;/span&gt;&lt;/font&gt;" style="sketch=0;points=[[0,0,0],[0.25,0,0],[0.5,0,0],[0.75,0,0],[1,0,0],[0,1,0],[0.25,1,0],[0.5,1,0],[0.75,1,0],[1,1,0],[0,0.25,0],[0,0.5,0],[0,0.75,0],[1,0.25,0],[1,0.5,0],[1,0.75,0]];outlineConnect=0;fontColor=#232F3E;gradientColor=#F78E04;gradientDirection=north;fillColor=#D05C17;strokeColor=#ffffff;dashed=0;verticalLabelPosition=bottom;verticalAlign=top;align=center;html=1;fontSize=12;fontStyle=0;aspect=fixed;shape=mxgraph.aws4.resourceIcon;resIcon=mxgraph.aws4.lambda;" vertex="1" parent="1">
                    <mxGeometry x="-49" y="720" width="80" height="80" as="geometry"/>
                </mxCell>
                <mxCell id="73" style="edgeStyle=none;html=1;entryX=0;entryY=0.5;entryDx=0;entryDy=0;fontSize=24;fontColor=#000000;startArrow=none;startFill=0;" edge="1" parent="1" source="67" target="32">
                    <mxGeometry relative="1" as="geometry"/>
                </mxCell>
                <mxCell id="77" style="edgeStyle=none;html=1;entryX=1;entryY=0.5;entryDx=0;entryDy=0;entryPerimeter=0;fontSize=24;fontColor=#000000;startArrow=none;startFill=0;" edge="1" parent="1" source="67" target="71">
                    <mxGeometry relative="1" as="geometry"/>
                </mxCell>
                <mxCell id="67" value="&lt;font color=&quot;#000000&quot;&gt;&lt;span style=&quot;font-size: 24px;&quot;&gt;startRoom&lt;/span&gt;&lt;/font&gt;" style="sketch=0;points=[[0,0,0],[0.25,0,0],[0.5,0,0],[0.75,0,0],[1,0,0],[0,1,0],[0.25,1,0],[0.5,1,0],[0.75,1,0],[1,1,0],[0,0.25,0],[0,0.5,0],[0,0.75,0],[1,0.25,0],[1,0.5,0],[1,0.75,0]];outlineConnect=0;fontColor=#232F3E;gradientColor=#F78E04;gradientDirection=north;fillColor=#D05C17;strokeColor=#ffffff;dashed=0;verticalLabelPosition=bottom;verticalAlign=top;align=center;html=1;fontSize=12;fontStyle=0;aspect=fixed;shape=mxgraph.aws4.resourceIcon;resIcon=mxgraph.aws4.lambda;" vertex="1" parent="1">
                    <mxGeometry x="-49" y="1130" width="80" height="80" as="geometry"/>
                </mxCell>
                <mxCell id="76" style="edgeStyle=none;html=1;entryX=0;entryY=0.5;entryDx=0;entryDy=0;fontSize=24;fontColor=#000000;startArrow=none;startFill=0;" edge="1" parent="1" source="68" target="32">
                    <mxGeometry relative="1" as="geometry"/>
                </mxCell>
                <mxCell id="68" value="&lt;font color=&quot;#000000&quot;&gt;&lt;span style=&quot;font-size: 24px;&quot;&gt;closeRoom&lt;/span&gt;&lt;/font&gt;" style="sketch=0;points=[[0,0,0],[0.25,0,0],[0.5,0,0],[0.75,0,0],[1,0,0],[0,1,0],[0.25,1,0],[0.5,1,0],[0.75,1,0],[1,1,0],[0,0.25,0],[0,0.5,0],[0,0.75,0],[1,0.25,0],[1,0.5,0],[1,0.75,0]];outlineConnect=0;fontColor=#232F3E;gradientColor=#F78E04;gradientDirection=north;fillColor=#D05C17;strokeColor=#ffffff;dashed=0;verticalLabelPosition=bottom;verticalAlign=top;align=center;html=1;fontSize=12;fontStyle=0;aspect=fixed;shape=mxgraph.aws4.resourceIcon;resIcon=mxgraph.aws4.lambda;" vertex="1" parent="1">
                    <mxGeometry x="-49" y="850" width="80" height="80" as="geometry"/>
                </mxCell>
                <mxCell id="74" style="edgeStyle=none;html=1;entryX=0;entryY=0.5;entryDx=0;entryDy=0;fontSize=24;fontColor=#000000;startArrow=none;startFill=0;" edge="1" parent="1" source="69" target="32">
                    <mxGeometry relative="1" as="geometry"/>
                </mxCell>
                <mxCell id="78" style="edgeStyle=none;html=1;entryX=0;entryY=0.5;entryDx=0;entryDy=0;fontSize=24;fontColor=#000000;startArrow=none;startFill=0;" edge="1" parent="1" source="69" target="25">
                    <mxGeometry relative="1" as="geometry"/>
                </mxCell>
                <mxCell id="69" value="&lt;font color=&quot;#000000&quot;&gt;&lt;span style=&quot;font-size: 24px;&quot;&gt;submitQuestion&lt;/span&gt;&lt;/font&gt;" style="sketch=0;points=[[0,0,0],[0.25,0,0],[0.5,0,0],[0.75,0,0],[1,0,0],[0,1,0],[0.25,1,0],[0.5,1,0],[0.75,1,0],[1,1,0],[0,0.25,0],[0,0.5,0],[0,0.75,0],[1,0.25,0],[1,0.5,0],[1,0.75,0]];outlineConnect=0;fontColor=#232F3E;gradientColor=#F78E04;gradientDirection=north;fillColor=#D05C17;strokeColor=#ffffff;dashed=0;verticalLabelPosition=bottom;verticalAlign=top;align=center;html=1;fontSize=12;fontStyle=0;aspect=fixed;shape=mxgraph.aws4.resourceIcon;resIcon=mxgraph.aws4.lambda;" vertex="1" parent="1">
                    <mxGeometry x="-49" y="990" width="80" height="80" as="geometry"/>
                </mxCell>
                <mxCell id="71" value="&lt;font color=&quot;#000000&quot;&gt;&lt;span style=&quot;font-size: 24px;&quot;&gt;getSummary&lt;/span&gt;&lt;/font&gt;" style="sketch=0;points=[[0,0,0],[0.25,0,0],[0.5,0,0],[0.75,0,0],[1,0,0],[0,1,0],[0.25,1,0],[0.5,1,0],[0.75,1,0],[1,1,0],[0,0.25,0],[0,0.5,0],[0,0.75,0],[1,0.25,0],[1,0.5,0],[1,0.75,0]];outlineConnect=0;fontColor=#232F3E;gradientColor=#F78E04;gradientDirection=north;fillColor=#D05C17;strokeColor=#ffffff;dashed=0;verticalLabelPosition=bottom;verticalAlign=top;align=center;html=1;fontSize=12;fontStyle=0;aspect=fixed;shape=mxgraph.aws4.resourceIcon;resIcon=mxgraph.aws4.lambda;" vertex="1" parent="1">
                    <mxGeometry x="-230" y="1130" width="80" height="80" as="geometry"/>
                </mxCell>
                <mxCell id="79" style="edgeStyle=none;html=1;entryX=0;entryY=0.5;entryDx=0;entryDy=0;entryPerimeter=0;fontSize=24;fontColor=#000000;startArrow=none;startFill=0;" edge="1" parent="1" source="6" target="36">
                    <mxGeometry relative="1" as="geometry"/>
                </mxCell>
                <mxCell id="80" style="edgeStyle=none;html=1;entryX=0;entryY=0.5;entryDx=0;entryDy=0;entryPerimeter=0;fontSize=24;fontColor=#000000;startArrow=none;startFill=0;" edge="1" parent="1" source="6" target="19">
                    <mxGeometry relative="1" as="geometry"/>
                </mxCell>
                <mxCell id="81" style="edgeStyle=none;html=1;entryX=0;entryY=0.5;entryDx=0;entryDy=0;entryPerimeter=0;fontSize=24;fontColor=#000000;startArrow=none;startFill=0;" edge="1" parent="1" source="6" target="48">
                    <mxGeometry relative="1" as="geometry"/>
                </mxCell>
                <mxCell id="82" style="edgeStyle=none;html=1;entryX=0;entryY=0.5;entryDx=0;entryDy=0;entryPerimeter=0;fontSize=24;fontColor=#000000;startArrow=none;startFill=0;" edge="1" parent="1" source="6" target="65">
                    <mxGeometry relative="1" as="geometry"/>
                </mxCell>
                <mxCell id="83" style="edgeStyle=none;html=1;entryX=0;entryY=0.5;entryDx=0;entryDy=0;entryPerimeter=0;fontSize=24;fontColor=#000000;startArrow=none;startFill=0;" edge="1" parent="1" source="6" target="68">
                    <mxGeometry relative="1" as="geometry"/>
                </mxCell>
                <mxCell id="84" style="edgeStyle=none;html=1;entryX=0;entryY=0.5;entryDx=0;entryDy=0;entryPerimeter=0;fontSize=24;fontColor=#000000;startArrow=none;startFill=0;" edge="1" parent="1" source="6" target="69">
                    <mxGeometry relative="1" as="geometry"/>
                </mxCell>
                <mxCell id="85" style="edgeStyle=none;html=1;entryX=0;entryY=0.25;entryDx=0;entryDy=0;entryPerimeter=0;fontSize=24;fontColor=#000000;startArrow=none;startFill=0;" edge="1" parent="1" source="6" target="67">
                    <mxGeometry relative="1" as="geometry"/>
                </mxCell>
            </root>
        </mxGraphModel>
    </diagram>
</mxfile>